<svg width="72" height="72" viewBox="0 0 72 72" fill="none" xmlns="http://www.w3.org/2000/svg">
<path d="M25.2006 47.9995C25.2006 46.796 25.1898 45.6764 25.204 44.5572C25.2154 43.6639 25.6564 43.2001 26.5359 43.1989C32.8344 43.1905 39.133 43.1911 45.4313 43.1981C46.3226 43.1991 46.7772 43.6513 46.7908 44.53C46.8081 45.6491 46.795 46.7687 46.795 47.9406C49.47 47.9406 52.2776 47.9406 55.1878 47.9406C55.1878 47.0191 55.2132 46.0796 55.1667 45.1434C55.1573 44.9526 54.9027 44.7443 54.7193 44.596C53.0868 43.2772 51.4404 41.9753 49.8075 40.6573C49.1013 40.0872 49.002 39.3402 49.5267 38.7804C49.9599 38.3183 50.5958 38.2432 51.151 38.68C53.1539 40.2557 55.1515 41.8393 57.1099 43.4692C57.3875 43.7002 57.5501 44.1983 57.5715 44.5834C57.6326 45.6782 57.593 46.7787 57.593 47.946C57.8319 47.9626 58.0456 47.9901 58.2591 47.9905C60.7585 47.9935 63.258 47.9973 65.7574 47.9909C67.9817 47.9851 69.6054 46.4385 69.588 44.3563C69.571 42.3124 67.9513 40.8037 65.759 40.7961C64.3594 40.7912 62.9596 40.7983 61.56 40.7941C60.3907 40.7906 59.994 40.3923 59.9938 39.212C59.9922 28.8661 59.9928 18.5202 59.9928 8.17435C59.9928 7.87993 59.9928 7.58552 59.9928 7.24964C59.1924 7.24964 58.4522 7.24964 57.5934 7.24964C57.5934 7.52042 57.5934 7.80743 57.5934 8.09444C57.5934 17.1409 57.5934 26.1873 57.5934 35.2336C57.5934 35.4334 57.5982 35.6335 57.592 35.8332C57.5665 36.6594 57.1071 37.1827 56.4045 37.1901C55.7001 37.1975 55.2076 36.674 55.1982 35.8566C55.1831 34.5574 55.194 33.2578 55.1938 31.9583C55.1938 31.7374 55.1938 31.5163 55.1938 31.1986C54.8811 31.1986 54.6163 31.1986 54.3516 31.1986C50.4026 31.1986 46.4534 31.1992 42.5044 31.1982C41.1628 31.1978 40.7975 30.8421 40.7973 29.5311C40.7961 23.4334 40.7961 17.336 40.7975 11.2383C40.7979 9.97471 41.1743 9.60739 42.4635 9.60699C46.4125 9.60558 50.3617 9.60659 54.3107 9.60659C54.5793 9.60659 54.8481 9.60659 55.1547 9.60659C55.1547 8.79984 55.1547 8.05979 55.1547 7.26326C48.8037 7.26326 42.4473 7.26326 35.9977 7.26326C35.9977 7.52463 35.9977 7.79001 35.9977 8.05518C35.9977 13.6031 35.9983 19.1507 35.9973 24.6986C35.9971 26.0341 35.6378 26.3982 34.3229 26.3998C32.8733 26.4016 31.4228 26.3736 29.9746 26.4213C29.6621 26.4315 29.2628 26.6326 29.0673 26.8769C28.1314 28.0468 27.2551 29.2643 26.3508 30.4598C25.766 31.2331 25.1153 31.4043 24.5034 30.9625C23.8689 30.5044 23.8481 29.8167 24.4571 28.9999C25.5024 27.5981 26.5737 26.2152 27.5932 24.7951C28.0184 24.2027 28.5273 23.9726 29.2441 23.9906C30.6635 24.0261 32.0846 24.001 33.5512 24.001C33.5512 18.3929 33.5512 12.8374 33.5512 7.24443C32.7874 7.24443 32.0471 7.24443 31.1985 7.24443C31.1985 8.25527 31.1657 9.27011 31.2083 10.2819C31.2466 11.1912 30.9958 11.8572 29.996 12.0563C29.996 12.887 30.0114 13.6858 29.9932 14.4839C29.9325 17.1331 27.7905 19.2176 25.1601 19.2004C22.5691 19.1834 20.4621 17.0976 20.4058 14.4807C20.3886 13.6826 20.4032 12.8838 20.4032 12.0567C19.4002 11.8564 19.152 11.1892 19.1915 10.2801C19.2345 9.28713 19.2013 8.29092 19.2013 7.25204C18.4063 7.25204 17.6663 7.25204 16.8636 7.25204C16.8636 12.7855 16.8636 18.341 16.8636 24.001C18.0799 24.001 19.3188 24.0008 20.5578 24.0012C20.9077 24.0014 21.2588 23.9848 21.6073 24.0084C22.3179 24.0567 22.799 24.5546 22.7942 25.2085C22.7894 25.8603 22.3049 26.3758 21.5905 26.3896C20.1913 26.4168 18.7913 26.3992 17.3917 26.4002C17.2215 26.4004 17.0514 26.4002 16.8433 26.4002C16.8433 28.4023 16.8433 30.3418 16.8433 32.3979C17.8656 32.3979 18.9033 32.3965 19.9409 32.3983C21.2233 32.4005 21.5989 32.7701 21.6003 34.0381C21.6025 36.1871 21.6049 38.3364 21.5993 40.4854C21.5965 41.5659 21.1787 41.9857 20.1084 41.9928C19.0378 41.9998 17.9671 41.9944 16.8495 41.9944C16.8495 44.0022 16.8495 45.9592 16.8495 47.9927C17.588 47.9927 18.3062 47.9833 19.024 47.9951C19.8568 48.0087 20.3787 48.4633 20.3948 49.1653C20.4114 49.892 19.869 50.3869 19.0006 50.3881C14.6266 50.3937 10.2524 50.4209 5.87877 50.3775C2.63897 50.3452 0.0222567 47.7151 0.0166488 44.4673C-0.00558279 31.6224 -0.0055829 18.7774 0.0168489 5.93257C0.0226572 2.68336 2.64238 0.0828676 5.87897 0.0183761C7.453 -0.0128682 9.02824 0.00295429 10.6027 0.0133691C11.5416 0.0195779 11.9979 0.458601 11.9989 1.38492C12.0059 8.05719 12.0051 14.7297 11.9997 21.4019C11.9991 22.2694 11.5022 22.8125 10.7759 22.7955C10.0545 22.7785 9.60626 22.2409 9.60566 21.3489C9.60165 15.3762 9.60346 9.4037 9.60346 3.43102C9.60346 3.13159 9.60346 2.83217 9.60346 2.33026C7.99718 2.42059 6.3907 2.34908 4.85411 2.6435C3.34137 2.93311 2.41185 4.45688 2.40824 6.10742C2.39943 10.1059 2.40524 14.1042 2.40504 18.1026C2.40504 24.95 2.40504 31.7973 2.40504 38.6444C2.40504 38.9098 2.40504 39.175 2.40504 39.6054C4.63801 37.8925 7.14356 38.5461 9.60346 38.361C9.60346 38.0742 9.60346 37.8084 9.60346 37.5426C9.60346 33.994 9.60306 30.4454 9.60426 26.8969C9.60426 26.6722 9.58223 26.4407 9.62709 26.2242C9.76028 25.5807 10.1675 25.2039 10.831 25.2155C11.4587 25.2264 11.8422 25.6007 11.977 26.2065C12.0197 26.3982 12.0023 26.6045 12.0023 26.8042C12.0035 30.9276 12.0043 35.0509 12.0025 39.1744C12.0019 40.4041 11.6163 40.7918 10.3976 40.7945C8.97296 40.7977 7.54814 40.787 6.12352 40.7973C4.00892 40.8125 2.40684 42.3695 2.40744 44.3938C2.40804 46.4178 4.00872 47.9795 6.12492 47.9893C8.84718 48.0019 11.5694 47.9923 14.4027 47.9923C14.4027 47.671 14.4027 47.383 14.4027 47.0952C14.4027 33.6006 14.4027 20.1059 14.4029 6.61133C14.4029 5.12803 14.7209 4.80878 16.1984 4.80857C30.4701 4.80837 44.7417 4.80837 59.0132 4.80837C59.3088 4.80837 59.6044 4.80837 59.9932 4.80837C59.9932 3.69279 59.9898 2.62748 59.9942 1.56237C59.9988 0.427357 60.4004 0.00055087 61.5145 0.0147711C63.386 0.0388052 65.2801 -0.0777603 67.1229 0.172595C69.9006 0.549931 71.9429 3.02144 71.9744 5.82982C72.0192 9.8277 71.9928 13.8266 71.9868 17.8248C71.9856 18.6542 71.5157 19.1802 70.8169 19.1968C70.0911 19.214 69.596 18.6707 69.5944 17.8036C69.5874 14.0052 69.5928 10.2066 69.5906 6.40825C69.589 3.85582 68.1455 2.41237 65.5977 2.40957C64.5544 2.40837 63.5112 2.40937 62.4308 2.40937C62.4308 14.4144 62.4308 26.35 62.4308 38.3544C64.808 38.5697 67.3476 37.8731 69.5912 39.6096C69.5912 39.1758 69.5912 38.9108 69.5912 38.6456C69.5912 33.5476 69.591 28.4497 69.5916 23.3517C69.5916 23.1268 69.5706 22.8974 69.6066 22.6781C69.7134 22.029 70.1035 21.6511 70.7657 21.6128C71.3859 21.577 71.8999 22.0496 71.9778 22.7032C72.0042 22.9253 71.9902 23.1524 71.9902 23.3773C71.9906 30.2246 71.9918 37.072 71.99 43.9191C71.989 47.8757 69.483 50.3909 65.5398 50.3913C51.8937 50.3927 38.2473 50.3919 24.6011 50.3915C24.3762 50.3915 24.1495 50.4047 23.9268 50.3809C23.2638 50.31 22.807 49.8167 22.807 49.1918C22.8068 48.5655 23.2618 48.0586 23.9262 48.0069C24.3922 47.9702 24.8635 47.9995 25.2006 47.9995ZM43.25 16.8364C43.25 20.8521 43.25 24.8064 43.25 28.7389C47.2589 28.7389 51.2139 28.7389 55.1535 28.7389C55.1535 24.7421 55.1535 20.8053 55.1535 16.8364C51.1761 16.8364 47.2389 16.8364 43.25 16.8364ZM27.6232 45.6173C27.6132 45.8358 27.6022 45.9826 27.6004 46.1294C27.581 47.658 27.9046 47.9917 29.4072 47.9921C31.1292 47.9925 32.8513 47.9923 34.5733 47.9923C37.3685 47.9923 40.1638 47.9965 42.959 47.9897C43.8805 47.9875 44.3494 47.5681 44.391 46.7307C44.4091 46.368 44.394 46.0034 44.394 45.6175C38.7654 45.6173 33.2324 45.6173 27.6232 45.6173ZM43.2594 12.0196C43.2594 12.8003 43.2594 13.5746 43.2594 14.3543C47.2417 14.3543 51.1953 14.3543 55.1351 14.3543C55.1351 13.5456 55.1351 12.7881 55.1351 12.0196C51.158 12.0196 47.2403 12.0196 43.2594 12.0196ZM22.8008 12.0324C22.8008 12.6082 22.8 13.1048 22.801 13.6013C22.8016 13.9257 22.7864 14.2514 22.8102 14.574C22.8977 15.7639 23.8737 16.7261 25.0504 16.7978C26.2597 16.8715 27.4165 16.0073 27.5507 14.7955C27.6505 13.8933 27.5704 12.971 27.5704 12.0322C25.9693 12.0324 24.4313 12.0324 22.8008 12.0324ZM28.7628 7.25685C26.3554 7.25685 24.0011 7.25685 21.6588 7.25685C21.6588 8.0646 21.6588 8.82167 21.6588 9.56973C24.0536 9.56973 26.3901 9.56973 28.7628 9.56973C28.7628 8.79543 28.7628 8.05638 28.7628 7.25685ZM19.148 39.5625C19.148 37.9444 19.148 36.3898 19.148 34.8582C18.3365 34.8582 17.5792 34.8582 16.8421 34.8582C16.8421 36.4567 16.8421 37.9937 16.8421 39.5625C17.6204 39.5625 18.3593 39.5625 19.148 39.5625Z" fill="#F8780F"/>
<path d="M62.3632 69.5842C62.3632 67.9571 62.3632 66.4177 62.3632 64.8321C61.5811 64.8321 60.8232 64.8321 60.0161 64.8321C59.9213 65.8011 60.2975 67.0751 58.7406 67.1644C57.9341 67.2107 57.6912 66.6803 57.553 64.8381C56.7997 64.8381 56.041 64.8381 55.2299 64.8381C55.1029 65.7921 55.5155 67.1292 53.8878 67.1596C53.088 67.1744 52.8585 66.6367 52.7672 64.8457C52.0151 64.8457 51.2566 64.8457 50.4274 64.8457C50.3001 65.7696 50.7175 67.2067 49.1112 67.1376C47.688 67.0763 48.0727 65.7658 47.9668 64.8267C47.1949 64.8267 46.4544 64.8267 45.593 64.8267C45.593 65.1996 45.612 65.588 45.5888 65.9735C45.5457 66.6875 45.0566 67.173 44.4059 67.1792C43.753 67.1852 43.2515 66.7035 43.2046 65.9941C43.1802 65.6242 43.2002 65.2515 43.2002 64.8337C42.3918 64.8337 41.6334 64.8337 40.8212 64.8337C40.7219 65.7927 41.1056 67.0705 39.5514 67.1648C38.7352 67.2143 38.4817 66.6665 38.3623 64.8407C37.6091 64.8407 36.8502 64.8407 36.0412 64.8407C35.8974 65.758 36.3192 67.1594 34.7742 67.1402C33.2871 67.1217 33.6781 65.774 33.5727 64.8223C32.7874 64.8223 32.047 64.8223 31.2276 64.8223C31.1098 65.7664 31.52 67.2011 29.9219 67.1376C28.5007 67.0811 28.8634 65.7794 28.7829 64.8291C27.9844 64.8291 27.2259 64.8291 26.4714 64.8291C26.2087 66.7903 25.9621 67.2211 25.1418 67.1792C24.3422 67.1384 24.1119 66.6917 23.9547 64.8361C23.201 64.8361 22.4425 64.8361 21.6266 64.8361C21.5208 65.783 21.9156 67.0665 20.3622 67.1652C19.5352 67.2177 19.2726 66.6563 19.1719 64.8431C18.4186 64.8431 17.6593 64.8431 16.8464 64.8431C16.6968 65.7488 17.1286 67.156 15.585 67.1402C14.0997 67.125 14.4676 65.7885 14.3847 64.8249C13.5966 64.8249 12.8563 64.8249 12.0313 64.8249C11.9098 65.7576 12.3308 67.1966 10.7325 67.139C9.30227 67.0873 9.67841 65.7806 9.57386 64.8317C8.79375 64.8317 8.03507 64.8317 7.22733 64.8317C7.13239 65.8017 7.50853 67.0755 5.95172 67.165C5.14517 67.2113 4.90203 66.6809 4.76403 64.8387C4.01076 64.8387 3.25209 64.8387 2.44875 64.8387C2.44875 66.3835 2.44875 67.9233 2.44875 69.5848C2.71412 69.5848 3.00073 69.5848 3.28714 69.5848C15.1834 69.5848 27.0797 69.5848 38.976 69.5848C40.2234 69.5848 40.7759 69.9443 40.7904 70.7639C40.8052 71.5979 40.2204 71.9838 38.9405 71.9838C26.5694 71.9838 14.1982 71.984 1.82706 71.9838C0.308708 71.9838 0.00567786 71.6752 0.00547758 70.1308C0.00527729 68.0817 0.00327458 66.0328 0.00627885 63.9837C0.00808141 62.7928 0.397233 62.3886 1.55748 62.3886C22.1261 62.387 42.6947 62.387 63.2633 62.3888C64.3826 62.3888 64.7882 62.8022 64.7904 63.9338C64.7948 66.1077 64.7952 68.2818 64.7902 70.4557C64.7876 71.5729 64.3738 71.982 63.2438 71.9826C57.0707 71.9853 50.8977 71.9851 44.7246 71.9826C43.7662 71.9822 43.2206 71.5546 43.2022 70.8122C43.1832 70.0403 43.7446 69.5862 44.7422 69.5858C50.2905 69.5836 55.8387 69.5846 61.387 69.5846C61.6854 69.5842 61.9836 69.5842 62.3632 69.5842Z" fill="#F8780F"/>
<path d="M52.7614 57.5891C52.7614 56.7481 52.7614 56.0083 52.7614 55.2294C45.1917 55.2294 37.655 55.2294 30.0588 55.2294C30.0588 55.9718 30.0588 56.7299 30.0588 57.5887C30.3085 57.5887 30.5729 57.5887 30.8373 57.5887C35.2349 57.5887 39.6326 57.5801 44.03 57.6035C44.4264 57.6055 44.9281 57.7051 45.1869 57.9578C45.4384 58.2036 45.6109 58.7604 45.5067 59.0788C45.3906 59.4341 44.9523 59.7197 44.5972 59.9461C44.4164 60.0614 44.1103 59.9869 43.8608 59.9869C39.0133 59.9883 34.166 59.9955 29.3187 59.9763C28.8335 59.9743 28.3257 59.8742 27.8677 59.7099C25.7315 58.944 23.612 58.1317 21.4798 57.3542C20.8659 57.1305 20.3913 56.8092 20.4097 56.0918C20.4291 55.3357 20.9485 55.0507 21.6048 54.8627C23.5706 54.2993 25.5187 53.6728 27.4917 53.1364C28.2498 52.9303 29.056 52.8065 29.8405 52.8049C40.2098 52.7835 50.5793 52.7889 60.9486 52.7921C63.1496 52.7927 64.7657 54.2934 64.7895 56.3377C64.8121 58.2775 63.291 59.9505 61.3492 59.9709C57.3269 60.0136 53.3036 59.9917 49.2809 59.9807C48.5102 59.9787 48.0083 59.479 48.0021 58.798C47.9957 58.0904 48.5144 57.6039 49.3346 57.5927C50.4549 57.5777 51.5757 57.5891 52.7614 57.5891ZM57.5576 55.2398C56.7499 55.2398 55.9942 55.2398 55.251 55.2398C55.251 56.0471 55.251 56.8032 55.251 57.5517C56.0465 57.5517 56.7847 57.5517 57.5576 57.5517C57.5576 56.7776 57.5576 56.0393 57.5576 55.2398ZM60.0317 57.5679C60.812 57.5519 61.6735 57.8573 62.1457 57.0363C62.3374 56.7031 62.3388 56.0774 62.1483 55.7435C61.6783 54.9185 60.8146 55.2282 60.0317 55.2095C60.0317 56.0101 60.0317 56.765 60.0317 57.5679ZM27.5751 55.5917C26.8681 55.8158 26.2618 56.0079 25.4507 56.2648C26.2951 56.5713 26.9099 56.7944 27.5751 57.0357C27.5751 56.5282 27.5751 56.1134 27.5751 55.5917Z" fill="#F8780F"/>
<path d="M40.7947 36.0188C40.7799 38.6686 38.6102 40.8088 35.9538 40.7936C33.3141 40.7786 31.1748 38.5921 31.1997 35.9343C31.2241 33.3226 33.3826 31.1942 36.0017 31.199C38.6553 31.2038 40.8095 33.3701 40.7947 36.0188ZM38.3927 36.0238C38.4073 34.7174 37.3466 33.6232 36.0436 33.6004C34.7038 33.577 33.6011 34.6635 33.6015 36.0062C33.6019 37.3034 34.6904 38.392 35.9877 38.3924C37.2989 38.3928 38.3781 37.3301 38.3927 36.0238Z" fill="#F8780F"/>
</svg>
