<svg width="72" height="73" viewBox="0 0 72 73" fill="none" xmlns="http://www.w3.org/2000/svg">
<path d="M38.6801 72.0168C37.3262 71.4889 36.8231 70.4928 36.8423 69.0548C36.8927 65.2851 36.8573 61.5142 36.8603 57.7439C36.8619 55.8908 37.7599 55 39.6251 54.9999C49.4351 54.9985 59.2451 55.015 69.055 54.9817C70.4969 54.9768 71.4903 55.4591 71.9995 56.8295C71.9995 61.2825 71.9995 65.7355 71.9995 70.1885C71.6718 71.0795 71.0626 71.6889 70.1718 72.0166C59.6747 72.0168 49.1775 72.0168 38.6801 72.0168ZM54.4368 69.901C54.4368 69.9031 54.4368 69.9052 54.4368 69.9073C59.3309 69.9073 64.2249 69.9007 69.119 69.9167C69.6607 69.9184 69.9093 69.8253 69.9047 69.1958C69.8767 65.4015 69.8799 61.607 69.9028 57.8127C69.9061 57.2508 69.7366 57.0973 69.1837 57.0982C59.3721 57.1149 49.5605 57.1176 39.7488 57.1031C39.1437 57.1022 38.9487 57.2558 38.9539 57.8884C38.9841 61.6123 38.9866 65.3367 38.9528 69.0606C38.9465 69.7531 39.1651 69.9177 39.8251 69.9142C44.6954 69.8896 49.5661 69.901 54.4368 69.901Z" fill="#F8780F"/>
<path d="M71.9998 33.6269C71.4073 34.9854 70.3482 35.3829 68.9098 35.3771C59.2378 35.338 49.5658 35.3569 39.8937 35.3565C39.6595 35.3565 39.425 35.3606 39.1913 35.3486C37.8376 35.2794 36.8817 34.3744 36.8727 33.0223C36.8456 28.9232 36.8489 24.8237 36.8699 20.7246C36.8766 19.4229 37.7302 18.5263 39.0151 18.3632C39.2924 18.328 39.5757 18.3321 39.8562 18.3321C49.5516 18.3306 59.2471 18.3454 68.9425 18.315C70.3834 18.3104 71.4432 18.7411 71.9998 20.1274C71.9998 24.627 71.9998 29.1269 71.9998 33.6269ZM39.0084 33.1848C39.3174 33.2013 39.5908 33.2285 39.8645 33.2286C49.6278 33.236 59.3913 33.2365 69.1547 33.2573C69.7405 33.2586 69.9069 33.0805 69.9032 32.499C69.8794 28.7052 69.8914 24.9112 69.8895 21.1173C69.8895 20.9341 69.8687 20.751 69.8548 20.5202C69.5283 20.4966 69.2287 20.4559 68.929 20.4557C59.1889 20.4483 49.4489 20.4492 39.7088 20.4304C39.1174 20.4293 38.9543 20.6265 38.9576 21.2013C38.9791 24.9716 38.9682 28.7422 38.9703 32.5127C38.9703 32.7173 38.9929 32.9221 39.0084 33.1848Z" fill="#F8780F"/>
<path d="M10.5624 72.0168C10.103 71.6601 9.68856 71.2751 9.93929 70.6126C10.1835 69.9672 10.7306 69.9037 11.3254 69.904C18.2806 69.9075 25.2359 69.8963 32.191 69.9153C32.8451 69.9171 33.0719 69.7612 33.0654 69.065C33.0311 65.341 33.0342 61.6162 33.0638 57.8921C33.0688 57.2646 32.8832 57.1021 32.2725 57.103C22.4602 57.1179 12.6479 57.1151 2.83577 57.0984C2.28517 57.0975 2.11156 57.247 2.11491 57.8113C2.13815 61.6058 2.13674 65.4006 2.11596 69.1953C2.11297 69.7438 2.25911 69.9463 2.8282 69.9192C3.7394 69.8755 4.65431 69.9153 5.56762 69.9047C6.15942 69.8979 6.7065 69.9604 6.95547 70.6085C7.21079 71.2729 6.7926 71.6534 6.34448 72.017C4.84482 72.017 3.34516 72.017 1.84568 72.017C0.480724 71.5019 -0.0191617 70.5078 0.000559011 69.0666C0.052326 65.2978 0.0167582 61.5276 0.018519 57.7581C0.0193994 55.8875 0.899966 55.0004 2.76217 55.0002C12.6403 54.9987 22.5185 54.9986 32.3965 55.0001C34.2601 55.0002 35.1556 55.8912 35.1572 57.7474C35.1602 61.5169 35.1248 65.2869 35.1752 69.0559C35.1944 70.4935 34.691 71.4893 33.3374 72.017C25.746 72.0168 18.1542 72.0168 10.5624 72.0168Z" fill="#F8780F"/>
<path d="M72 15.2053C71.4912 16.5746 70.4995 17.0738 69.0572 17.0534C65.3138 17.0004 61.569 17.0381 57.8247 17.0344C56.056 17.0326 55.1374 16.1212 55.1353 14.3606C55.1307 10.4751 55.1307 6.58942 55.1353 2.7039C55.1374 0.93748 56.0549 0.020993 57.8191 0.0192322C61.5634 0.0155345 65.308 0.052511 69.0516 0.000567888C70.4921 -0.019329 71.4855 0.481438 72.0002 1.84604C72 6.29924 72 10.7523 72 15.2053ZM69.8911 8.56413C69.8911 6.64382 69.876 4.72316 69.9012 2.80321C69.9079 2.28571 69.7521 2.11474 69.2243 2.11738C65.4549 2.1364 61.6852 2.13604 57.9157 2.11756C57.3929 2.11492 57.2309 2.27884 57.2334 2.80004C57.2512 6.61724 57.2512 10.4346 57.2334 14.252C57.2309 14.7712 57.388 14.9385 57.9129 14.9359C61.6824 14.9172 65.452 14.9172 69.2215 14.9359C69.744 14.9385 69.9088 14.7778 69.9015 14.2548C69.8753 12.3583 69.8911 10.4612 69.8911 8.56413Z" fill="#F8780F"/>
<path d="M71.9998 51.9078C71.4434 53.2937 70.385 53.7401 68.9433 53.7207C65.3148 53.6716 61.6852 53.7056 58.056 53.704C56.001 53.7031 55.1343 52.8463 55.1338 50.8174C55.1329 47.0234 55.1319 43.2295 55.1343 39.4355C55.1356 37.5627 56.0089 36.6829 57.8827 36.6801C61.5587 36.6746 65.2354 36.7202 68.9103 36.6575C70.3501 36.6329 71.4075 37.0503 71.9998 38.4083C71.9998 42.9081 71.9998 47.408 71.9998 51.9078ZM69.8909 45.1801C69.8909 43.2837 69.8774 41.3872 69.9001 39.491C69.9059 39.0002 69.8052 38.7754 69.2504 38.7784C65.4585 38.7981 61.6667 38.7949 57.8748 38.781C57.3864 38.7793 57.2316 38.9432 57.2337 39.4327C57.2503 43.2722 57.2497 47.112 57.2342 50.9515C57.2323 51.4463 57.4066 51.6032 57.887 51.6016C61.6788 51.5893 65.4708 51.5888 69.2627 51.602C69.7575 51.6037 69.905 51.4206 69.8997 50.9394C69.8784 49.0198 69.8909 47.0998 69.8909 45.1801Z" fill="#F8780F"/>
<path d="M35.933 17.0354C31.0148 17.0354 26.0968 17.037 21.1786 17.0347C19.3197 17.0339 18.439 16.1441 18.4379 14.2691C18.4356 10.4272 18.4351 6.58556 18.4383 2.74371C18.4398 0.924293 19.3419 0.0190748 21.1543 0.0188987C31.061 0.0171379 40.9675 0.0171379 50.8742 0.0188987C52.6538 0.0192509 53.5747 0.925701 53.5768 2.68419C53.5814 6.57288 53.5808 10.4614 53.577 14.3501C53.5752 16.1258 52.6703 17.033 50.8985 17.0342C45.9098 17.0376 40.9215 17.0354 35.933 17.0354ZM36.0103 14.9259C40.9046 14.9259 45.7989 14.9232 50.6931 14.9301C51.1527 14.9308 51.4871 14.9396 51.4823 14.2885C51.4547 10.4473 51.4617 6.60581 51.4772 2.76431C51.4792 2.27411 51.3219 2.11828 50.831 2.11898C40.9722 2.13272 31.1134 2.13536 21.2546 2.12585C20.7176 2.12532 20.529 2.26548 20.5329 2.83879C20.5588 6.60968 20.5602 10.3811 20.5324 14.152C20.5278 14.7776 20.7134 14.9417 21.3274 14.9389C26.2218 14.9155 31.1161 14.9259 36.0103 14.9259Z" fill="#F8780F"/>
<path d="M17.5701 35.3566C12.6762 35.3566 7.78209 35.358 2.88817 35.3561C0.857283 35.3554 0.0189743 34.5227 0.0184461 32.5133C0.0175657 28.6956 0.016157 24.8779 0.0191504 21.0601C0.020559 19.2544 0.931236 18.3339 2.7429 18.333C12.648 18.3286 22.5529 18.3281 32.458 18.3336C34.2218 18.3346 35.1545 19.2713 35.1568 21.0205C35.1619 24.9085 35.1619 28.7965 35.1568 32.6845C35.1545 34.45 34.2488 35.352 32.4626 35.3545C27.4984 35.3608 22.5343 35.3566 17.5701 35.3566ZM2.15234 33.1817C2.43776 33.2 2.66596 33.2275 2.89416 33.2277C12.7044 33.2354 22.5146 33.2379 32.3247 33.2544C32.8486 33.2553 33.0657 33.1361 33.0618 32.5522C33.0368 28.7584 33.0402 24.9645 33.059 21.1707C33.0616 20.631 32.9134 20.4305 32.3485 20.4315C22.5383 20.4497 12.7281 20.4504 2.91793 20.4593C2.66895 20.4595 2.41998 20.5097 2.15216 20.5386C2.15234 24.7581 2.15234 28.9225 2.15234 33.1817Z" fill="#F8780F"/>
<path d="M51.4691 51.5292C51.4691 49.3381 51.4691 47.2547 51.4691 45.1712C51.4691 43.2965 51.4497 41.4213 51.4807 39.5471C51.4902 38.9775 51.3393 38.7542 50.7391 38.7766C49.6395 38.8176 48.5371 38.7954 47.436 38.7836C46.8169 38.7769 46.3304 38.5501 46.207 37.8717C46.1015 37.292 46.5076 36.727 47.1372 36.7126C48.635 36.6784 50.1376 36.6524 51.632 36.7358C52.6983 36.7953 53.5521 37.7752 53.5595 38.9044C53.587 43.0989 53.5886 47.294 53.5563 51.4884C53.5477 52.6094 52.7117 53.455 51.5975 53.6421C51.2994 53.6921 50.9918 53.7017 50.6884 53.7018C40.8949 53.7048 31.1014 53.705 21.308 53.7036C19.3075 53.7032 18.4381 52.8318 18.4375 50.8347C18.4365 47.0383 18.4358 43.2419 18.4379 39.4455C18.4389 37.5627 19.3054 36.6812 21.1775 36.68C28.0657 36.6758 34.954 36.677 41.8422 36.6828C42.1421 36.683 42.536 36.6427 42.7198 36.8071C42.999 37.0572 43.2885 37.4734 43.2813 37.8131C43.275 38.1131 42.921 38.4871 42.6235 38.6743C42.3771 38.8292 41.9894 38.785 41.6642 38.7854C34.9167 38.7935 28.1692 38.8053 21.4217 38.7836C20.7176 38.7813 20.5221 38.9643 20.5301 39.6839C20.5704 43.3861 20.5607 47.0892 20.5367 50.7918C20.5329 51.3898 20.6778 51.6083 21.3154 51.6069C30.9916 51.5855 40.6678 51.5882 50.344 51.5824C50.6912 51.5819 51.0382 51.5503 51.4691 51.5292Z" fill="#F8780F"/>
<path d="M0.0184021 45.1642C0.0184021 43.1972 0.0122394 41.2303 0.0201629 39.2633C0.0268539 37.6173 0.933305 36.689 2.58351 36.6834C6.49297 36.6697 10.4026 36.6697 14.3123 36.6834C15.9582 36.6892 16.8784 37.6217 16.8818 39.2607C16.8897 43.218 16.8907 47.1754 16.8811 51.1327C16.8772 52.7155 15.938 53.688 14.3498 53.6968C10.4169 53.7183 6.48382 53.7181 2.55094 53.697C0.95954 53.6882 0.0286147 52.7187 0.0206911 51.1354C0.0108308 49.145 0.0184021 47.1546 0.0184021 45.1642ZM2.12711 45.2308C2.12711 47.1271 2.14384 49.0238 2.11637 50.9198C2.10863 51.4521 2.29685 51.6048 2.80625 51.6029C6.57467 51.5882 10.3433 51.5872 14.1117 51.6036C14.6431 51.6058 14.787 51.4111 14.7847 50.9008C14.7676 47.0847 14.7658 43.2684 14.7861 39.4524C14.7889 38.9133 14.5987 38.7778 14.0925 38.78C10.3241 38.796 6.55548 38.7972 2.78706 38.7789C2.25548 38.7763 2.10986 38.9574 2.11673 39.4718C2.14261 41.391 2.12711 43.311 2.12711 45.2308Z" fill="#F8780F"/>
<path d="M8.4786 17.0353C6.53469 17.0355 4.59079 17.0399 2.64671 17.0341C0.959705 17.029 0.0293074 16.1086 0.019447 14.4407C0.0132843 13.4099 0.0145168 12.3791 0.019447 11.3484C0.0236729 10.449 0.383929 9.97426 1.0562 9.96458C1.75276 9.95454 2.1227 10.4414 2.12622 11.3854C2.12992 12.3459 2.15422 13.3074 2.11654 14.2663C2.09541 14.8062 2.3016 14.9374 2.80905 14.9351C6.57977 14.9178 10.3507 14.9196 14.1214 14.9335C14.5906 14.9353 14.787 14.8173 14.7847 14.306C14.7674 10.4641 14.766 6.62208 14.7859 2.78023C14.7887 2.23351 14.5809 2.11642 14.0825 2.11871C10.3352 2.1349 6.58769 2.13737 2.84057 2.11659C2.2942 2.1136 2.09013 2.2564 2.11531 2.8276C2.15845 3.80958 2.13309 4.79492 2.12534 5.77884C2.11865 6.61416 1.74008 7.08693 1.09071 7.09749C0.432879 7.10823 0.028427 6.63652 0.0212078 5.81459C0.0113474 4.69015 0.00412821 3.56536 0.0229686 2.44128C0.0465631 1.00043 1.01975 0.0277762 2.4731 0.0230221C6.45458 0.00999229 10.4362 0.00981621 14.4177 0.0230221C15.9054 0.0279523 16.874 1.00307 16.8791 2.50432C16.893 6.51027 16.8918 10.5162 16.8802 14.522C16.8758 16.0697 15.9175 17.0228 14.3807 17.0322C12.4134 17.0442 10.4459 17.0352 8.4786 17.0353Z" fill="#F8780F"/>
</svg>
