<svg width="10" height="19" viewBox="0 0 10 19" fill="none" xmlns="http://www.w3.org/2000/svg">
<path d="M2.79069 10.4839C2.34655 10.4839 1.93993 10.4839 1.5327 10.4839C1.18538 10.4839 0.838054 10.49 0.49073 10.4815C0.127675 10.4731 0.0090764 10.3635 0.00605093 10.0029C-0.00181528 9.05714 -0.00242037 8.11138 0.00665602 7.16622C0.0102866 6.80801 0.137356 6.69485 0.495571 6.69243C1.16722 6.6882 1.83948 6.69122 2.51114 6.69122C2.59343 6.69122 2.67572 6.69122 2.79008 6.69122C2.79008 6.58896 2.78887 6.50122 2.79008 6.41349C2.80582 5.55183 2.77314 4.68594 2.84696 3.82913C3.03394 1.64656 4.69673 0.0884469 6.88233 0.0170459C7.77242 -0.0119986 8.66372 0.00433891 9.55442 0.00675929C9.86786 0.00736438 9.99493 0.136249 9.99674 0.450898C10.001 1.33615 10.001 2.2214 9.99735 3.10605C9.99614 3.4455 9.87754 3.56773 9.52961 3.5762C8.91847 3.59073 8.30672 3.59133 7.69557 3.60041C7.01 3.61069 6.72137 3.87936 6.70746 4.55766C6.69293 5.24384 6.70443 5.93062 6.70443 6.64342C6.8079 6.64342 6.88838 6.64342 6.96886 6.64342C7.7464 6.64342 8.52395 6.64221 9.30149 6.64403C9.79162 6.64463 9.90658 6.75899 9.90719 7.24125C9.90779 8.14163 9.909 9.04201 9.90658 9.94178C9.90537 10.3448 9.79948 10.4531 9.39468 10.4549C8.51184 10.4585 7.62901 10.4561 6.70383 10.4561C6.70383 10.562 6.70383 10.6552 6.70383 10.749C6.70383 13.1167 6.70383 15.4844 6.70383 17.8528C6.70383 18.5057 6.63485 18.5734 5.97287 18.5734C5.10457 18.5734 4.23626 18.5746 3.36855 18.5728C2.90384 18.5722 2.79069 18.4597 2.79069 17.9992C2.79008 15.5934 2.79008 13.1875 2.79008 10.7823C2.79069 10.6933 2.79069 10.6044 2.79069 10.4839Z" fill="white"/>
</svg>
