<svg width="15" height="16" viewBox="0 0 15 16" fill="none" xmlns="http://www.w3.org/2000/svg">
<path d="M9.77044 15.022C8.26342 15.022 6.75611 15.022 5.24909 15.022C5.15717 15.014 5.06525 15.0011 4.97332 14.9987C4.37641 14.9825 3.78067 14.9592 3.19643 14.8181C1.95192 14.5176 1.02768 13.8126 0.477609 12.6482C0.136431 11.9269 0.0341957 11.1509 0.0259461 10.3636C0.00915237 8.74467 -0.00557897 7.1254 0.00208133 5.50643C0.00561685 4.73038 0.0106255 3.94932 0.199187 3.18742C0.527107 1.85983 1.30139 0.908479 2.57948 0.389936C3.26566 0.111514 3.98986 0.0331428 4.72112 0.0251879C6.24758 0.00868878 7.77405 -0.00427481 9.30051 0.00132311C10.1016 0.00426938 10.9074 -0.000444648 11.6967 0.171323C13.1536 0.488931 14.1745 1.32331 14.6875 2.74106C14.9338 3.42194 14.9924 4.13347 14.9945 4.84941C15.0001 6.58123 15.0048 8.31304 14.9909 10.0449C14.9871 10.5369 14.9479 11.033 14.8722 11.5192C14.7166 12.5144 14.2691 13.3621 13.4827 14.0108C12.7161 14.6434 11.8096 14.8971 10.8376 14.9628C10.4823 14.9866 10.1261 15.0025 9.77044 15.022ZM7.50918 13.6938C7.50947 13.6862 7.50947 13.6785 7.50977 13.6705C7.90604 13.6705 8.3029 13.6823 8.69858 13.6682C9.5533 13.6372 10.4145 13.6481 11.2604 13.5409C12.4165 13.3942 13.1964 12.7254 13.4783 11.5752C13.5912 11.1147 13.6289 10.6279 13.638 10.1518C13.6654 8.75793 13.6745 7.36346 13.6639 5.96958C13.6583 5.24215 13.6348 4.51029 13.5496 3.78875C13.4067 2.58137 12.6451 1.75936 11.4581 1.52366C10.9392 1.42054 10.4003 1.38813 9.86943 1.38047C8.46053 1.35985 7.05133 1.35749 5.64242 1.3737C4.98864 1.38136 4.32927 1.40522 3.68374 1.49921C2.53705 1.66655 1.75688 2.41226 1.52501 3.54421C1.42483 4.03388 1.39066 4.5427 1.38005 5.04386C1.35442 6.25655 1.34499 7.47041 1.35825 8.68339C1.36738 9.52367 1.38889 10.3669 1.47109 11.2022C1.55594 12.0622 1.96548 12.7616 2.73651 13.2062C3.20821 13.4781 3.73059 13.5916 4.2674 13.6104C5.3475 13.6487 6.42848 13.6673 7.50918 13.6938Z" fill="white"/>
<path d="M3.64575 7.50757C3.64546 5.37801 5.38376 3.64354 7.51273 3.64943C9.64583 3.65532 11.36 5.36828 11.3682 7.50227C11.3765 9.63006 9.64229 11.3687 7.51067 11.3698C5.38022 11.371 3.64605 9.63802 3.64575 7.50757ZM7.50772 10.0098C8.89424 10.0098 10.007 8.8988 10.0097 7.51258C10.0123 6.12783 8.90101 5.01149 7.51538 5.00736C6.12415 5.00324 5.00428 6.12105 5.00604 7.51228C5.00781 8.89703 6.12209 10.0098 7.50772 10.0098Z" fill="white"/>
<path d="M11.5433 2.59772C12.0477 2.60804 12.4334 3.0155 12.4201 3.52344C12.4072 4.01842 12.0012 4.40379 11.5015 4.39524C11.0053 4.38699 10.6108 3.97039 10.6223 3.46658C10.6332 2.97544 11.0442 2.58771 11.5433 2.59772Z" fill="white"/>
</svg>
