<svg width="15" height="14" viewBox="0 0 15 14" fill="none" xmlns="http://www.w3.org/2000/svg">
<path d="M0 4.57168C0.124391 4.28959 0.343944 4.19987 0.644725 4.20802C1.21536 4.22332 1.78667 4.21142 2.35765 4.21278C2.73898 4.2138 2.92624 4.39937 2.92624 4.77764C2.92692 7.5642 2.92692 10.3508 2.92624 13.1373C2.92624 13.5197 2.7332 13.709 2.34643 13.7096C1.77546 13.7103 1.20414 13.7015 0.63351 13.7134C0.331369 13.7192 0.112835 13.622 0 13.3314C0 10.4113 0 7.49146 0 4.57168Z" fill="white"/>
<path d="M0 0.381938C0.112496 0.0916924 0.330689 -0.00584905 0.63249 0.000268533C1.20754 0.0121638 1.78294 0.00298746 2.35799 0.00400705C2.73218 0.00468679 2.92522 0.19773 2.9259 0.572262C2.92692 1.09871 2.92726 1.62517 2.9259 2.15162C2.92488 2.51867 2.73592 2.70866 2.36546 2.71036C1.79041 2.71308 1.21468 2.70186 0.639967 2.71512C0.339866 2.72191 0.119293 2.63083 0 2.34466C0 1.69042 0 1.03618 0 0.381938Z" fill="white"/>
<path d="M4.92465 8.95451C4.92465 7.57295 4.92465 6.1914 4.92465 4.80985C4.92465 4.38841 5.09934 4.2127 5.51941 4.21236C6.03703 4.21168 6.5543 4.21134 7.07192 4.21236C7.4614 4.21338 7.64323 4.39725 7.64459 4.78776C7.64527 4.98794 7.63983 5.18846 7.64969 5.38796C7.65275 5.44879 7.68367 5.53716 7.7282 5.55857C7.76864 5.57794 7.85735 5.53818 7.90255 5.49875C8.10783 5.31897 8.29679 5.1198 8.50683 4.94579C9.39422 4.20998 10.4227 3.91192 11.566 3.9731C12.2963 4.01218 12.975 4.20964 13.596 4.60049C14.1901 4.97434 14.5554 5.51745 14.7658 6.17475C14.9449 6.73417 14.9864 7.31534 14.9908 7.89549C15.0034 9.65769 14.9993 11.4202 14.9996 13.1824C14.9996 13.509 14.7974 13.7072 14.4647 13.7085C13.8546 13.7113 13.2442 13.7102 12.6338 13.7089C12.2691 13.7082 12.0751 13.5124 12.0744 13.1457C12.0717 11.7349 12.0785 10.3238 12.0628 8.91339C12.0581 8.47088 12.0224 8.02464 11.9514 7.58825C11.8093 6.71989 11.1214 6.17849 10.2459 6.20058C9.53016 6.21859 8.92656 6.47723 8.45857 7.02645C8.17172 7.36326 8.00723 7.76192 7.97358 8.19729C7.91682 8.93106 7.8723 9.66687 7.85633 10.4027C7.83661 11.3101 7.85191 12.2186 7.85157 13.1267C7.85123 13.524 7.66634 13.7089 7.2687 13.7092C6.68787 13.7099 6.1067 13.7096 5.52587 13.7092C5.10817 13.7089 4.92499 13.5281 4.92499 13.1138C4.92431 11.7275 4.92465 10.3408 4.92465 8.95451Z" fill="white"/>
</svg>
