<svg width="15" height="13" viewBox="0 0 15 13" fill="none" xmlns="http://www.w3.org/2000/svg">
<path d="M15 1.57055C15 1.61963 15 1.66811 15 1.7172C14.6055 2.29108 14.1492 2.80739 13.5989 3.23825C13.5547 3.2728 13.5226 3.35158 13.5232 3.40915C13.5402 4.94959 13.1759 6.39671 12.4475 7.7493C11.644 9.24187 10.5168 10.4242 9.02486 11.2453C7.97952 11.8204 6.85781 12.1361 5.67127 12.2385C4.49079 12.3409 3.33394 12.2325 2.20193 11.878C1.48625 11.6537 0.812987 11.3374 0.176083 10.9423C0.00519177 10.8363 -0.0457121 10.6981 0.0427636 10.5684C0.112453 10.466 0.215473 10.4551 0.328795 10.4666C1.18568 10.5526 2.02316 10.4642 2.83884 10.1824C3.23516 10.0454 3.6133 9.87029 3.97993 9.63456C3.93388 9.61759 3.90358 9.60305 3.87146 9.59456C3.40726 9.46912 2.99276 9.25036 2.62553 8.94069C2.16254 8.54982 1.84318 8.062 1.64805 7.49175C1.58442 7.30571 1.70077 7.15664 1.89651 7.1627C1.96559 7.16512 2.03407 7.17603 2.11043 7.18391C2.09891 7.16451 2.09588 7.15421 2.08861 7.14876C2.05771 7.12512 2.02498 7.10331 1.99347 7.08089C1.08508 6.44035 0.623916 5.55923 0.586344 4.45267C0.57786 4.19512 0.744509 4.08907 0.978424 4.19755C1.09478 4.25148 1.21173 4.3036 1.33657 4.35996C1.20204 4.13937 1.06023 3.94485 0.956608 3.73154C0.459084 2.71104 0.499686 1.69781 1.02933 0.699729C1.12386 0.521565 1.29536 0.499144 1.4408 0.639129C1.49352 0.690033 1.53837 0.748209 1.58624 0.803354C2.77097 2.16321 4.24112 3.05161 5.9979 3.45823C6.35181 3.54004 6.71359 3.5861 7.08446 3.65033C7.08446 3.53519 7.08809 3.45338 7.08385 3.37218C7.04386 2.64377 7.23111 1.97596 7.65288 1.38632C8.80004 -0.218358 10.955 -0.464999 12.4433 0.830018C12.5178 0.89486 12.5821 0.911828 12.6772 0.887588C13.2153 0.752451 13.7226 0.543381 14.2037 0.268864C14.3104 0.208265 14.4176 0.193721 14.5152 0.28159C14.6128 0.368854 14.6067 0.474904 14.5661 0.590043C14.4425 0.94334 14.2698 1.26815 14.0334 1.55903C14.0122 1.5857 13.9965 1.6166 13.9547 1.68387C14.1916 1.59539 14.3879 1.52389 14.5819 1.44935C14.8055 1.3633 14.8667 1.37966 15 1.57055Z" fill="#EB7513"/>
</svg>
